#!OML:ASF I:\Actors\actors\Patient Classification 2\Patient 1\Session 1\actor1.ASF
:FULLY-SPECIFIED
:DEGREES
250
root -0.823372 18.3713 5.57557 -0.639405 8.59585 -5.51662
lowerback 15.2512 1.31309 4.75959
upperback 2.0922 2.64254 1.67683
thorax -6.18653 1.20235 -1.44481
lowerneck 0.311572 18.2067 20.3223
upperneck 4.83891 25.3641 -16.3256
head 6.06865 12.5618 -5.8379
rclavicle 3.24019e-014 5.66536e-015
rhumerus -52.8924 -1.92672 -84.4791
rradius 98.8496
rwrist 2.71902
rhand -20.3739 -26.8979
rfingers 7.12502
rthumb 5.97889 -56.7936
lclavicle 3.24019e-014 5.66536e-015
lhumerus -39.3814 -23.8795 105.649
lradius 96.9622
lwrist -0.630454
lhand -11.7256 -33.5575
lfingers 7.12502
lthumb 14.3214 -4.07146
rfemur 1.60829 -4.23307 20.8036
rtibia 15.6852
rfoot -24.6738 -12.8605
rtoes -10.7998
lfemur -15.3394 -7.50941 -7.9934
ltibia 36.3374
lfoot -21.5033 4.46768
ltoes -57.959
251
root -0.86481 18.3801 5.56675 -0.557277 9.21541 -5.576
lowerback 15.2684 1.36408 4.93279
upperback 2.06504 2.73699 1.616
thorax -6.20839 1.24304 -1.62616
lowerneck -0.196855 18.3089 20.0583
upperneck 5.27228 25.4102 -15.8556
head 6.19172 12.5615 -5.60214
rclavicle -3.39176e-015 1.77912e-014
rhumerus -52.8897 -1.76944 -84.6244
rradius 99.2481
rwrist 2.20209
rhand -20.4287 -27.2269
rfingers 7.12502
rthumb 5.92594 -57.1241
lclavicle -3.39176e-015 1.77912e-014
lhumerus -39.5893 -23.8837 105.686
lradius 97.3394
lwrist -0.509018
lhand -11.8301 -33.905
lfingers 7.12502
lthumb 14.2207 -4.41186
rfemur 1.64584 -4.62683 21.0019
rtibia 15.3817
rfoot -24.7781 -13.0633
rtoes -10.507
lfemur -15.6327 -8.16925 -7.81812
ltibia 36.2662
lfoot -21.4376 4.50281
ltoes -57.8623
252
root -0.897788 18.3871 5.55711 -0.492393 9.89445 -5.59541
lowerback 15.2974 1.39282 5.12365
upperback 2.04739 2.80576 1.55862
thorax -6.2268 1.27099 -1.80901
lowerneck -0.260508 18.356 19.9534
upperneck 5.24782 25.4644 -15.8613
head 6.19123 12.5829 -5.577
rclavicle -1.2598e-014 6.26172e-015
rhumerus -52.882 -1.56737 -84.7802
rradius 99.5325
rwrist 2.1631
rhand -20.7356 -27.3546
rfingers 7.12502
rthumb 5.62962 -57.2598
lclavicle -1.2598e-014 6.26172e-015
lhumerus -39.7929 -23.8861 105.725
lradius 97.7192
lwrist -0.428538
lhand -11.7311 -34.0175
lfingers 7.12502
lthumb 14.3161 -4.5311
rfemur 1.68615 -5.0966 21.1238
rtibia 15.13
rfoot -24.825 -13.2739
rtoes -10.7675
lfemur -15.9409 -8.89385 -7.71472
ltibia 36.2429
lfoot -21.4142 4.39199
ltoes -57.6081
253
root -0.925095 18.3893 5.5468 -0.453944 10.5523 -5.62373
lowerback 15.3414 1.42675 5.33453
upperback 2.05362 2.88542 1.51084
thorax -6.22604 1.30476 -1.99516
lowerneck -0.0252394 18.3463 19.8749
upperneck 4.804 25.4772 -16.1399
head 6.04774 12.5978 -5.6842
rclavicle 7.45443e-015 2.13694e-014
rhumerus -52.8015 -1.39992 -84.9271
rradius 99.7905
rwrist 2.05961
rhand -20.8793 -27.425
rfingers 7.12502
rthumb 5.49089 -57.3338
lclavicle 7.45443e-015 2.13694e-014
lhumerus -39.9517 -23.8878 105.761
lradius 98.0682
lwrist -0.276849
lhand -11.6055 -33.9744
lfingers 7.12502
lthumb 14.4371 -4.49657
rfemur 1.7331 -5.48765 21.2461
rtibia 14.9194
rfoot -24.9456 -13.4312
rtoes -10.782
lfemur -16.2375 -9.53286 -7.61313
ltibia 36.2496
lfoot -21.4562 4.15908
ltoes -57.2949
254
root -0.94837 18.3899 5.53955 -0.380273 11.188 -5.66385
lowerback 15.2885 1.48949 5.52096
upperback 2.071 2.99357 1.48833
thorax -6.15988 1.35559 -2.14228
lowerneck 0.165142 18.3297 19.7462
upperneck 4.41417 25.4679 -16.3374
head 5.9069 12.6015 -5.76095
rclavicle -1.41137e-014 1.98785e-016
rhumerus -52.6526 -1.22374 -85.0665
rradius 99.8297
rwrist 2.56851
rhand -21.273 -27.0351
rfingers 7.12502
rthumb 5.11078 -56.9535
lclavicle -1.41137e-014 1.98785e-016
lhumerus -40.0156 -23.9036 105.819
lradius 98.338
lwrist -0.0684476
lhand -11.4026 -33.982
lfingers 7.12502
lthumb 14.6326 -4.51823
rfemur 1.73729 -5.75409 21.3933
rtibia 14.7484
rfoot -25.1753 -13.6512
rtoes -10.5804
lfemur -16.5709 -9.99403 -7.49407
ltibia 36.2749
lfoot -21.4828 3.84229
ltoes -57.089
